G:\RME\Thesis\opencap-processing\Data\6bca726f-ff49-494f-a035-472a00a81e0d\OpenSimData\Dynamics\walking\GRF_resultant_walking_0.mot
version=1
nRows=10
nColumns=19
inDegrees=yes
endheader 
time	ground_force_right_vx	ground_force_right_vy	ground_force_right_vz	ground_force_right_px	ground_force_right_py	ground_force_right_pz	ground_torque_right_x	ground_torque_right_y	ground_torque_right_z	ground_force_left_vx	ground_force_left_vy	ground_force_left_vz	ground_force_left_px	ground_force_left_py	ground_force_left_pz	ground_torque_left_x	ground_torque_left_y	ground_torque_left_z	
          0.57000000	        -47.88807706	         23.93018069	          1.18347149	          1.17452117	          0.00000000	         -0.15009650	          0.00000000	         -0.00078283	          0.00000000	         36.49020312	        734.07008240	         42.72820559	          1.11412201	          0.00000000	         -0.34988381	          0.00000000	          0.72110107	          0.00000000	
          0.58000000	        -57.20938141	         29.32785361	          1.40936571	          1.19571480	          0.00000000	         -0.15048493	          0.00000000	         -0.00083378	          0.00000000	         49.36429255	        736.54356384	         37.28961017	          1.11476809	          0.00000000	         -0.35002858	          0.00000000	          0.73429390	          0.00000000	
          0.59000000	        -54.60302672	         28.75797699	          1.29722166	          1.21672014	          0.00000000	         -0.15080601	          0.00000000	         -0.00067164	          0.00000000	         55.51247112	        740.07029624	         33.87753711	          1.11530980	          0.00000000	         -0.35017223	          0.00000000	          1.01708167	          0.00000000	
          0.60000000	        -44.29894676	         23.92082004	          1.00040354	          1.23736884	          0.00000000	         -0.15107957	          0.00000000	         -0.00043467	          0.00000000	         51.12713124	        748.94466658	         29.90074929	          1.11574047	          0.00000000	         -0.35028538	          0.00000000	          1.22321061	          0.00000000	
          0.61000000	        -31.31842633	         17.30897047	          0.68307567	          1.25763033	          0.00000000	         -0.15130583	          0.00000000	         -0.00022271	          0.00000000	         42.45705260	        760.23394548	         27.17968490	          1.11616777	          0.00000000	         -0.35037773	          0.00000000	          1.48619951	          0.00000000	
          0.62000000	        -19.19895080	         10.84631187	          0.41811094	          1.27748479	          0.00000000	         -0.15149383	          0.00000000	         -0.00009380	          0.00000000	         31.92944422	        775.67473449	         24.88562660	          1.11663964	          0.00000000	         -0.35044345	          0.00000000	          1.69655789	          0.00000000	
          0.63000000	        -10.38948027	          5.99814641	          0.24815606	          1.29688618	          0.00000000	         -0.15167611	          0.00000000	         -0.00003373	          0.00000000	         22.66145039	        788.80899527	         22.85726024	          1.11719056	          0.00000000	         -0.35050106	          0.00000000	          1.93164219	          0.00000000	
          0.64000000	         -5.57411087	          3.29154218	          0.16128438	          1.31574222	          0.00000000	         -0.15191817	          0.00000000	         -0.00001068	          0.00000000	         15.32607435	        798.17847763	         22.30485258	          1.11782091	          0.00000000	         -0.35054470	          0.00000000	          2.16122930	          0.00000000	
          0.65000000	         -3.25607656	          1.97237801	          0.12188630	          1.33392676	          0.00000000	         -0.15227952	          0.00000000	         -0.00000317	          0.00000000	          9.89932437	        798.66508193	         22.60201179	          1.11850862	          0.00000000	         -0.35061454	          0.00000000	          2.46668093	          0.00000000	
          0.66000000	         -1.83470663	          1.14478020	          0.09274443	          1.35126275	          0.00000000	         -0.15282404	          0.00000000	         -0.00000095	          0.00000000	          5.86270705	        790.20646483	         23.97590205	          1.11924234	          0.00000000	         -0.35071821	          0.00000000	          2.69825578	          0.00000000	
